<svg width="177" height="46" viewBox="0 0 177 46" fill="none" xmlns="http://www.w3.org/2000/svg">
<rect x="1" y="1" width="175" height="44" rx="22" fill="#D9CAB3" stroke="black" stroke-width="2"/>
<path d="M56.2949 24.7324V14.7812H58.7363V24.7324C58.7363 25.6764 58.5345 26.4805 58.1309 27.1445C57.7272 27.8086 57.1771 28.3164 56.4805 28.668C55.7839 29.0195 54.9928 29.1953 54.1074 29.1953C53.2025 29.1953 52.3984 29.0423 51.6953 28.7363C50.9987 28.4303 50.4518 27.9616 50.0547 27.3301C49.6576 26.6986 49.459 25.8978 49.459 24.9277H51.9199C51.9199 25.4876 52.0078 25.9401 52.1836 26.2852C52.3659 26.6237 52.6198 26.8711 52.9453 27.0273C53.2773 27.1771 53.6647 27.252 54.1074 27.252C54.5306 27.252 54.9049 27.1576 55.2305 26.9688C55.5625 26.7734 55.8229 26.4902 56.0117 26.1191C56.2005 25.7415 56.2949 25.2793 56.2949 24.7324ZM67.2812 26.8809V21.8418C67.2812 21.4642 67.2129 21.1387 67.0762 20.8652C66.9395 20.5918 66.7311 20.3802 66.4512 20.2305C66.1777 20.0807 65.8327 20.0059 65.416 20.0059C65.0319 20.0059 64.6999 20.071 64.4199 20.2012C64.14 20.3314 63.9219 20.5072 63.7656 20.7285C63.6094 20.9499 63.5312 21.2005 63.5312 21.4805H61.1875C61.1875 21.0638 61.2884 20.6602 61.4902 20.2695C61.6921 19.8789 61.985 19.5306 62.3691 19.2246C62.7533 18.9186 63.2122 18.6777 63.7461 18.502C64.2799 18.3262 64.8789 18.2383 65.543 18.2383C66.3372 18.2383 67.0404 18.3717 67.6523 18.6387C68.2708 18.9056 68.7559 19.3092 69.1074 19.8496C69.4655 20.3835 69.6445 21.054 69.6445 21.8613V26.5586C69.6445 27.0404 69.6771 27.4733 69.7422 27.8574C69.8138 28.235 69.9147 28.5638 70.0449 28.8438V29H67.6328C67.5221 28.7461 67.4342 28.4238 67.3691 28.0332C67.3105 27.6361 67.2812 27.252 67.2812 26.8809ZM67.623 22.5742L67.6426 24.0293H65.9531C65.5169 24.0293 65.1328 24.0716 64.8008 24.1562C64.4688 24.2344 64.1921 24.3516 63.9707 24.5078C63.7493 24.6641 63.5833 24.8529 63.4727 25.0742C63.362 25.2956 63.3066 25.5462 63.3066 25.8262C63.3066 26.1061 63.3717 26.3633 63.502 26.5977C63.6322 26.8255 63.821 27.0046 64.0684 27.1348C64.3223 27.265 64.6283 27.3301 64.9863 27.3301C65.4681 27.3301 65.888 27.2324 66.2461 27.0371C66.6107 26.8353 66.8971 26.5911 67.1055 26.3047C67.3138 26.0117 67.4245 25.735 67.4375 25.4746L68.1992 26.5195C68.1211 26.7865 67.9876 27.0729 67.7988 27.3789C67.61 27.6849 67.3626 27.9779 67.0566 28.2578C66.7572 28.5312 66.3958 28.7559 65.9727 28.9316C65.556 29.1074 65.0742 29.1953 64.5273 29.1953C63.8372 29.1953 63.222 29.0586 62.6816 28.7852C62.1413 28.5052 61.7181 28.1309 61.4121 27.6621C61.1061 27.1868 60.9531 26.6497 60.9531 26.0508C60.9531 25.4909 61.0573 24.9961 61.2656 24.5664C61.4805 24.1302 61.793 23.7656 62.2031 23.4727C62.6198 23.1797 63.1276 22.9583 63.7266 22.8086C64.3255 22.6523 65.0091 22.5742 65.7773 22.5742H67.623ZM76.4219 27.3203C76.806 27.3203 77.151 27.2454 77.457 27.0957C77.7695 26.9395 78.0202 26.7246 78.209 26.4512C78.4043 26.1777 78.5117 25.862 78.5312 25.5039H80.748C80.735 26.1875 80.5332 26.8092 80.1426 27.3691C79.752 27.929 79.2344 28.375 78.5898 28.707C77.9453 29.0326 77.2324 29.1953 76.4512 29.1953C75.6439 29.1953 74.9408 29.0586 74.3418 28.7852C73.7428 28.5052 73.2448 28.1211 72.8477 27.6328C72.4505 27.1445 72.151 26.5814 71.9492 25.9434C71.7539 25.3053 71.6562 24.6217 71.6562 23.8926V23.5508C71.6562 22.8216 71.7539 22.138 71.9492 21.5C72.151 20.8555 72.4505 20.2891 72.8477 19.8008C73.2448 19.3125 73.7428 18.9316 74.3418 18.6582C74.9408 18.3783 75.6406 18.2383 76.4414 18.2383C77.2878 18.2383 78.0299 18.4076 78.668 18.7461C79.306 19.0781 79.8073 19.5436 80.1719 20.1426C80.543 20.735 80.735 21.4251 80.748 22.2129H78.5312C78.5117 21.8223 78.4141 21.4707 78.2383 21.1582C78.069 20.8392 77.8281 20.5853 77.5156 20.3965C77.2096 20.2077 76.8418 20.1133 76.4121 20.1133C75.9368 20.1133 75.543 20.2109 75.2305 20.4062C74.918 20.5951 74.6738 20.8555 74.498 21.1875C74.3223 21.513 74.1953 21.8809 74.1172 22.291C74.0456 22.6947 74.0098 23.1146 74.0098 23.5508V23.8926C74.0098 24.3288 74.0456 24.752 74.1172 25.1621C74.1888 25.5723 74.3125 25.9401 74.4883 26.2656C74.6706 26.5846 74.918 26.8418 75.2305 27.0371C75.543 27.2259 75.9401 27.3203 76.4219 27.3203ZM84.9277 14V29H82.5645V14H84.9277ZM91.4902 18.4336L86.8906 23.5312L84.3711 26.1094L83.7559 24.1172L85.6602 21.7637L88.6484 18.4336H91.4902ZM89.1562 29L85.7285 24.0391L87.2129 22.3887L91.8809 29H89.1562ZM97.4473 29.1953C96.666 29.1953 95.9596 29.0684 95.3281 28.8145C94.7031 28.554 94.1693 28.1927 93.7266 27.7305C93.2904 27.2682 92.9551 26.7246 92.7207 26.0996C92.4863 25.4746 92.3691 24.8008 92.3691 24.0781V23.6875C92.3691 22.8607 92.4896 22.112 92.7305 21.4414C92.9714 20.7708 93.3066 20.1979 93.7363 19.7227C94.166 19.2409 94.6738 18.873 95.2598 18.6191C95.8457 18.3652 96.4805 18.2383 97.1641 18.2383C97.9193 18.2383 98.5801 18.3652 99.1465 18.6191C99.7129 18.873 100.182 19.2311 100.553 19.6934C100.93 20.1491 101.21 20.6927 101.393 21.3242C101.581 21.9557 101.676 22.6523 101.676 23.4141V24.4199H93.5117V22.7305H99.3516V22.5449C99.3385 22.1217 99.2539 21.7246 99.0977 21.3535C98.9479 20.9824 98.7168 20.6829 98.4043 20.4551C98.0918 20.2272 97.6751 20.1133 97.1543 20.1133C96.7637 20.1133 96.4154 20.1979 96.1094 20.3672C95.8099 20.5299 95.5592 20.7676 95.3574 21.0801C95.1556 21.3926 94.9993 21.7702 94.8887 22.2129C94.7845 22.6491 94.7324 23.1406 94.7324 23.6875V24.0781C94.7324 24.5404 94.7943 24.9701 94.918 25.3672C95.0482 25.7578 95.237 26.0996 95.4844 26.3926C95.7318 26.6855 96.0312 26.9167 96.3828 27.0859C96.7344 27.2487 97.1348 27.3301 97.584 27.3301C98.1504 27.3301 98.6549 27.2161 99.0977 26.9883C99.5404 26.7604 99.9245 26.4382 100.25 26.0215L101.49 27.2227C101.262 27.5547 100.966 27.8737 100.602 28.1797C100.237 28.4792 99.791 28.7233 99.2637 28.9121C98.7428 29.1009 98.1374 29.1953 97.4473 29.1953ZM108.355 18.4336V20.1523H102.398V18.4336H108.355ZM104.117 15.8457H106.471V26.0801C106.471 26.4056 106.516 26.6562 106.607 26.832C106.705 27.0013 106.839 27.1152 107.008 27.1738C107.177 27.2324 107.376 27.2617 107.604 27.2617C107.766 27.2617 107.923 27.252 108.072 27.2324C108.222 27.2129 108.342 27.1934 108.434 27.1738L108.443 28.9707C108.248 29.0293 108.02 29.0814 107.76 29.127C107.506 29.1725 107.213 29.1953 106.881 29.1953C106.34 29.1953 105.862 29.1009 105.445 28.9121C105.029 28.7168 104.703 28.401 104.469 27.9648C104.234 27.5286 104.117 26.9492 104.117 26.2266V15.8457ZM116.1 26.1387C116.1 25.9043 116.041 25.6927 115.924 25.5039C115.807 25.3086 115.582 25.1328 115.25 24.9766C114.924 24.8203 114.443 24.6771 113.805 24.5469C113.245 24.4232 112.73 24.2767 112.262 24.1074C111.799 23.9316 111.402 23.7201 111.07 23.4727C110.738 23.2253 110.481 22.9323 110.299 22.5938C110.117 22.2552 110.025 21.8646 110.025 21.4219C110.025 20.9922 110.12 20.5853 110.309 20.2012C110.497 19.8171 110.768 19.4785 111.119 19.1855C111.471 18.8926 111.897 18.6615 112.398 18.4922C112.906 18.3229 113.473 18.2383 114.098 18.2383C114.983 18.2383 115.742 18.388 116.373 18.6875C117.011 18.9805 117.499 19.3809 117.838 19.8887C118.176 20.39 118.346 20.9564 118.346 21.5879H115.992C115.992 21.3079 115.921 21.0475 115.777 20.8066C115.641 20.5592 115.432 20.3607 115.152 20.2109C114.872 20.0547 114.521 19.9766 114.098 19.9766C113.694 19.9766 113.359 20.0417 113.092 20.1719C112.831 20.2956 112.636 20.4583 112.506 20.6602C112.382 20.862 112.32 21.0833 112.32 21.3242C112.32 21.5 112.353 21.6595 112.418 21.8027C112.49 21.9395 112.607 22.0664 112.77 22.1836C112.932 22.2943 113.154 22.3984 113.434 22.4961C113.72 22.5938 114.078 22.6882 114.508 22.7793C115.315 22.9486 116.008 23.1667 116.588 23.4336C117.174 23.694 117.623 24.0326 117.936 24.4492C118.248 24.8594 118.404 25.3802 118.404 26.0117C118.404 26.4805 118.303 26.9102 118.102 27.3008C117.906 27.6849 117.62 28.0202 117.242 28.3066C116.865 28.5866 116.412 28.8047 115.885 28.9609C115.364 29.1172 114.778 29.1953 114.127 29.1953C113.17 29.1953 112.359 29.026 111.695 28.6875C111.031 28.3424 110.527 27.903 110.182 27.3691C109.843 26.8288 109.674 26.2689 109.674 25.6895H111.949C111.975 26.1257 112.096 26.474 112.311 26.7344C112.532 26.9883 112.805 27.1738 113.131 27.291C113.463 27.4017 113.805 27.457 114.156 27.457C114.579 27.457 114.934 27.4017 115.221 27.291C115.507 27.1738 115.725 27.0176 115.875 26.8223C116.025 26.6204 116.1 26.3926 116.1 26.1387Z" fill="black"/>
</svg>
