<svg width="24" height="54" viewBox="0 0 24 54" fill="none" xmlns="http://www.w3.org/2000/svg">
<path d="M22.7555 15.732C22.7555 20.3207 21.9715 29.682 20.1326 37.8866C19.2125 41.9918 18.0356 45.7731 16.5792 48.5165C15.1022 51.2985 13.4423 52.8243 11.6278 52.8243C9.8132 52.8243 8.15332 51.2985 6.67638 48.5165C5.21996 45.7731 4.04307 41.9918 3.12297 37.8866C1.28405 29.6821 0.500014 20.3207 0.500014 15.7321C0.500014 11.15 1.28334 7.33305 3.05138 4.67516C4.79636 2.05195 7.53847 0.499996 11.6278 0.499996C15.7171 0.499996 18.4592 2.05194 20.2042 4.67516C21.9722 7.33303 22.7555 11.15 22.7555 15.732Z" fill="#E67E22" stroke="black"/>
<circle cx="11.6278" cy="13.3248" r="6.47666" fill="#F8F9FA" stroke="black"/>
</svg>
