<svg width="177" height="46" viewBox="0 0 177 46" fill="none" xmlns="http://www.w3.org/2000/svg">
<rect x="1" y="1" width="175" height="44" rx="22" fill="#D9CAB3" stroke="black" stroke-width="2"/>
<path d="M68.8457 23.6973H65.1445V21.7539H68.8457C69.4902 21.7539 70.0111 21.6497 70.4082 21.4414C70.8053 21.2331 71.0951 20.9466 71.2773 20.582C71.4661 20.2109 71.5605 19.7878 71.5605 19.3125C71.5605 18.8633 71.4661 18.4434 71.2773 18.0527C71.0951 17.6556 70.8053 17.3366 70.4082 17.0957C70.0111 16.8548 69.4902 16.7344 68.8457 16.7344H65.8965V29H63.4453V14.7812H68.8457C69.946 14.7812 70.8802 14.9766 71.6484 15.3672C72.4232 15.7513 73.0124 16.2852 73.416 16.9688C73.8197 17.6458 74.0215 18.4206 74.0215 19.293C74.0215 20.2109 73.8197 20.9987 73.416 21.6562C73.0124 22.3138 72.4232 22.8184 71.6484 23.1699C70.8802 23.5215 69.946 23.6973 68.8457 23.6973ZM81.8242 26.8809V21.8418C81.8242 21.4642 81.7559 21.1387 81.6191 20.8652C81.4824 20.5918 81.2741 20.3802 80.9941 20.2305C80.7207 20.0807 80.3757 20.0059 79.959 20.0059C79.5749 20.0059 79.2428 20.071 78.9629 20.2012C78.6829 20.3314 78.4648 20.5072 78.3086 20.7285C78.1523 20.9499 78.0742 21.2005 78.0742 21.4805H75.7305C75.7305 21.0638 75.8314 20.6602 76.0332 20.2695C76.235 19.8789 76.528 19.5306 76.9121 19.2246C77.2962 18.9186 77.7552 18.6777 78.2891 18.502C78.8229 18.3262 79.4219 18.2383 80.0859 18.2383C80.8802 18.2383 81.5833 18.3717 82.1953 18.6387C82.8138 18.9056 83.2988 19.3092 83.6504 19.8496C84.0085 20.3835 84.1875 21.054 84.1875 21.8613V26.5586C84.1875 27.0404 84.2201 27.4733 84.2852 27.8574C84.3568 28.235 84.4577 28.5638 84.5879 28.8438V29H82.1758C82.0651 28.7461 81.9772 28.4238 81.9121 28.0332C81.8535 27.6361 81.8242 27.252 81.8242 26.8809ZM82.166 22.5742L82.1855 24.0293H80.4961C80.0599 24.0293 79.6758 24.0716 79.3438 24.1562C79.0117 24.2344 78.735 24.3516 78.5137 24.5078C78.2923 24.6641 78.1263 24.8529 78.0156 25.0742C77.9049 25.2956 77.8496 25.5462 77.8496 25.8262C77.8496 26.1061 77.9147 26.3633 78.0449 26.5977C78.1751 26.8255 78.3639 27.0046 78.6113 27.1348C78.8652 27.265 79.1712 27.3301 79.5293 27.3301C80.0111 27.3301 80.431 27.2324 80.7891 27.0371C81.1536 26.8353 81.4401 26.5911 81.6484 26.3047C81.8568 26.0117 81.9674 25.735 81.9805 25.4746L82.7422 26.5195C82.6641 26.7865 82.5306 27.0729 82.3418 27.3789C82.153 27.6849 81.9056 27.9779 81.5996 28.2578C81.3001 28.5312 80.9388 28.7559 80.5156 28.9316C80.099 29.1074 79.6172 29.1953 79.0703 29.1953C78.3802 29.1953 77.765 29.0586 77.2246 28.7852C76.6842 28.5052 76.2611 28.1309 75.9551 27.6621C75.6491 27.1868 75.4961 26.6497 75.4961 26.0508C75.4961 25.4909 75.6003 24.9961 75.8086 24.5664C76.0234 24.1302 76.3359 23.7656 76.7461 23.4727C77.1628 23.1797 77.6706 22.9583 78.2695 22.8086C78.8685 22.6523 79.5521 22.5742 80.3203 22.5742H82.166ZM88.9824 20.6895V29H86.6289V18.4336H88.8457L88.9824 20.6895ZM88.5625 23.3262L87.8008 23.3164C87.8073 22.5677 87.9115 21.8809 88.1133 21.2559C88.3216 20.6309 88.6081 20.0938 88.9727 19.6445C89.3438 19.1953 89.7865 18.8503 90.3008 18.6094C90.8151 18.362 91.388 18.2383 92.0195 18.2383C92.5273 18.2383 92.9863 18.3099 93.3965 18.4531C93.8132 18.5898 94.168 18.8145 94.4609 19.127C94.7604 19.4395 94.9883 19.8464 95.1445 20.3477C95.3008 20.8424 95.3789 21.4512 95.3789 22.1738V29H93.0156V22.1641C93.0156 21.6562 92.9408 21.2559 92.791 20.9629C92.6478 20.6634 92.4362 20.4518 92.1562 20.3281C91.8828 20.1979 91.541 20.1328 91.1309 20.1328C90.7272 20.1328 90.3659 20.2174 90.0469 20.3867C89.7279 20.556 89.4577 20.7871 89.2363 21.0801C89.0215 21.373 88.8555 21.7116 88.7383 22.0957C88.6211 22.4798 88.5625 22.89 88.5625 23.3262ZM102.625 18.4336V20.1523H96.668V18.4336H102.625ZM98.3867 15.8457H100.74V26.0801C100.74 26.4056 100.786 26.6562 100.877 26.832C100.975 27.0013 101.108 27.1152 101.277 27.1738C101.447 27.2324 101.645 27.2617 101.873 27.2617C102.036 27.2617 102.192 27.252 102.342 27.2324C102.492 27.2129 102.612 27.1934 102.703 27.1738L102.713 28.9707C102.518 29.0293 102.29 29.0814 102.029 29.127C101.775 29.1725 101.482 29.1953 101.15 29.1953C100.61 29.1953 100.132 29.1009 99.7148 28.9121C99.2982 28.7168 98.9727 28.401 98.7383 27.9648C98.5039 27.5286 98.3867 26.9492 98.3867 26.2266V15.8457ZM110.369 26.1387C110.369 25.9043 110.311 25.6927 110.193 25.5039C110.076 25.3086 109.852 25.1328 109.52 24.9766C109.194 24.8203 108.712 24.6771 108.074 24.5469C107.514 24.4232 107 24.2767 106.531 24.1074C106.069 23.9316 105.672 23.7201 105.34 23.4727C105.008 23.2253 104.751 22.9323 104.568 22.5938C104.386 22.2552 104.295 21.8646 104.295 21.4219C104.295 20.9922 104.389 20.5853 104.578 20.2012C104.767 19.8171 105.037 19.4785 105.389 19.1855C105.74 18.8926 106.167 18.6615 106.668 18.4922C107.176 18.3229 107.742 18.2383 108.367 18.2383C109.253 18.2383 110.011 18.388 110.643 18.6875C111.281 18.9805 111.769 19.3809 112.107 19.8887C112.446 20.39 112.615 20.9564 112.615 21.5879H110.262C110.262 21.3079 110.19 21.0475 110.047 20.8066C109.91 20.5592 109.702 20.3607 109.422 20.2109C109.142 20.0547 108.79 19.9766 108.367 19.9766C107.964 19.9766 107.628 20.0417 107.361 20.1719C107.101 20.2956 106.906 20.4583 106.775 20.6602C106.652 20.862 106.59 21.0833 106.59 21.3242C106.59 21.5 106.622 21.6595 106.688 21.8027C106.759 21.9395 106.876 22.0664 107.039 22.1836C107.202 22.2943 107.423 22.3984 107.703 22.4961C107.99 22.5938 108.348 22.6882 108.777 22.7793C109.585 22.9486 110.278 23.1667 110.857 23.4336C111.443 23.694 111.893 24.0326 112.205 24.4492C112.518 24.8594 112.674 25.3802 112.674 26.0117C112.674 26.4805 112.573 26.9102 112.371 27.3008C112.176 27.6849 111.889 28.0202 111.512 28.3066C111.134 28.5866 110.682 28.8047 110.154 28.9609C109.633 29.1172 109.048 29.1953 108.396 29.1953C107.439 29.1953 106.629 29.026 105.965 28.6875C105.301 28.3424 104.796 27.903 104.451 27.3691C104.113 26.8288 103.943 26.2689 103.943 25.6895H106.219C106.245 26.1257 106.365 26.474 106.58 26.7344C106.801 26.9883 107.075 27.1738 107.4 27.291C107.732 27.4017 108.074 27.457 108.426 27.457C108.849 27.457 109.204 27.4017 109.49 27.291C109.777 27.1738 109.995 27.0176 110.145 26.8223C110.294 26.6204 110.369 26.3926 110.369 26.1387Z" fill="black"/>
</svg>
