<svg width="177" height="46" viewBox="0 0 177 46" fill="none" xmlns="http://www.w3.org/2000/svg">
<rect x="1" y="1" width="175" height="44" rx="22" fill="#D9CAB3" stroke="black" stroke-width="2"/>
<path d="M66.9258 25.3379C66.9258 25.0449 66.8802 24.7845 66.7891 24.5566C66.7044 24.3288 66.5514 24.1204 66.3301 23.9316C66.1087 23.7428 65.7962 23.5605 65.3926 23.3848C64.9954 23.2025 64.4876 23.0169 63.8691 22.8281C63.1921 22.6198 62.5671 22.3887 61.9941 22.1348C61.4277 21.8743 60.9329 21.5749 60.5098 21.2363C60.0866 20.8913 59.7578 20.4974 59.5234 20.0547C59.2891 19.6055 59.1719 19.0879 59.1719 18.502C59.1719 17.9225 59.2923 17.3952 59.5332 16.9199C59.7806 16.4447 60.1289 16.0345 60.5781 15.6895C61.0339 15.3379 61.571 15.0677 62.1895 14.8789C62.8079 14.6836 63.4915 14.5859 64.2402 14.5859C65.2949 14.5859 66.2031 14.7812 66.9648 15.1719C67.7331 15.5625 68.3223 16.0866 68.7324 16.7441C69.1491 17.4017 69.3574 18.1276 69.3574 18.9219H66.9258C66.9258 18.4531 66.8249 18.0397 66.623 17.6816C66.4277 17.3171 66.1283 17.0306 65.7246 16.8223C65.3275 16.6139 64.8229 16.5098 64.2109 16.5098C63.6315 16.5098 63.1497 16.5977 62.7656 16.7734C62.3815 16.9492 62.0951 17.1868 61.9062 17.4863C61.7174 17.7858 61.623 18.1243 61.623 18.502C61.623 18.7689 61.6849 19.013 61.8086 19.2344C61.9323 19.4492 62.1211 19.651 62.375 19.8398C62.6289 20.0221 62.9479 20.1947 63.332 20.3574C63.7161 20.5202 64.1686 20.6764 64.6895 20.8262C65.4772 21.0605 66.1641 21.321 66.75 21.6074C67.3359 21.8874 67.8242 22.2064 68.2148 22.5645C68.6055 22.9225 68.8984 23.3294 69.0938 23.7852C69.2891 24.2344 69.3867 24.7454 69.3867 25.3184C69.3867 25.9173 69.2663 26.4577 69.0254 26.9395C68.7845 27.4147 68.4395 27.8216 67.9902 28.1602C67.5475 28.4922 67.0137 28.7493 66.3887 28.9316C65.7702 29.1074 65.0801 29.1953 64.3184 29.1953C63.6348 29.1953 62.9609 29.1042 62.2969 28.9219C61.6393 28.7396 61.0404 28.4629 60.5 28.0918C59.9596 27.7142 59.5299 27.2454 59.2109 26.6855C58.8919 26.1191 58.7324 25.4583 58.7324 24.7031H61.1836C61.1836 25.1654 61.2617 25.5592 61.418 25.8848C61.5807 26.2103 61.8053 26.4772 62.0918 26.6855C62.3783 26.8874 62.7103 27.0371 63.0879 27.1348C63.472 27.2324 63.8822 27.2812 64.3184 27.2812C64.8913 27.2812 65.3698 27.1999 65.7539 27.0371C66.1445 26.8743 66.4375 26.6465 66.6328 26.3535C66.8281 26.0605 66.9258 25.722 66.9258 25.3379ZM73.6445 14V29H71.3008V14H73.6445ZM73.2344 23.3262L72.4727 23.3164C72.4792 22.5872 72.5801 21.9134 72.7754 21.2949C72.9772 20.6764 73.2572 20.1393 73.6152 19.6836C73.9798 19.2214 74.416 18.8665 74.9238 18.6191C75.4316 18.3652 75.9948 18.2383 76.6133 18.2383C77.1341 18.2383 77.6029 18.3099 78.0195 18.4531C78.4427 18.5964 78.8073 18.8275 79.1133 19.1465C79.4193 19.459 79.6504 19.8691 79.8066 20.377C79.9694 20.8783 80.0508 21.4902 80.0508 22.2129V29H77.6875V22.1934C77.6875 21.6855 77.6126 21.2819 77.4629 20.9824C77.3197 20.6829 77.1081 20.4681 76.8281 20.3379C76.5482 20.2012 76.2064 20.1328 75.8027 20.1328C75.3796 20.1328 75.0052 20.2174 74.6797 20.3867C74.3607 20.556 74.0938 20.7871 73.8789 21.0801C73.6641 21.373 73.5013 21.7116 73.3906 22.0957C73.2865 22.4798 73.2344 22.89 73.2344 23.3262ZM81.9844 23.834V23.6094C81.9844 22.8477 82.0951 22.1413 82.3164 21.4902C82.5378 20.8327 82.8568 20.263 83.2734 19.7812C83.6966 19.293 84.2109 18.9154 84.8164 18.6484C85.4284 18.375 86.1185 18.2383 86.8867 18.2383C87.6615 18.2383 88.3516 18.375 88.957 18.6484C89.569 18.9154 90.0866 19.293 90.5098 19.7812C90.9329 20.263 91.2552 20.8327 91.4766 21.4902C91.6979 22.1413 91.8086 22.8477 91.8086 23.6094V23.834C91.8086 24.5957 91.6979 25.3021 91.4766 25.9531C91.2552 26.6042 90.9329 27.1738 90.5098 27.6621C90.0866 28.1439 89.5723 28.5215 88.9668 28.7949C88.3613 29.0618 87.6745 29.1953 86.9062 29.1953C86.1315 29.1953 85.4382 29.0618 84.8262 28.7949C84.2207 28.5215 83.7064 28.1439 83.2832 27.6621C82.86 27.1738 82.5378 26.6042 82.3164 25.9531C82.0951 25.3021 81.9844 24.5957 81.9844 23.834ZM84.3379 23.6094V23.834C84.3379 24.3092 84.3867 24.7585 84.4844 25.1816C84.582 25.6048 84.735 25.9759 84.9434 26.2949C85.1517 26.6139 85.4186 26.8646 85.7441 27.0469C86.0697 27.2292 86.457 27.3203 86.9062 27.3203C87.3424 27.3203 87.7201 27.2292 88.0391 27.0469C88.3646 26.8646 88.6315 26.6139 88.8398 26.2949C89.0482 25.9759 89.2012 25.6048 89.2988 25.1816C89.403 24.7585 89.4551 24.3092 89.4551 23.834V23.6094C89.4551 23.1406 89.403 22.6979 89.2988 22.2812C89.2012 21.8581 89.0449 21.4837 88.8301 21.1582C88.6217 20.8327 88.3548 20.5788 88.0293 20.3965C87.7103 20.2077 87.3294 20.1133 86.8867 20.1133C86.444 20.1133 86.0599 20.2077 85.7344 20.3965C85.4154 20.5788 85.1517 20.8327 84.9434 21.1582C84.735 21.4837 84.582 21.8581 84.4844 22.2812C84.3867 22.6979 84.3379 23.1406 84.3379 23.6094ZM98.4395 29.1953C97.6582 29.1953 96.9518 29.0684 96.3203 28.8145C95.6953 28.554 95.1615 28.1927 94.7188 27.7305C94.2826 27.2682 93.9473 26.7246 93.7129 26.0996C93.4785 25.4746 93.3613 24.8008 93.3613 24.0781V23.6875C93.3613 22.8607 93.4818 22.112 93.7227 21.4414C93.9635 20.7708 94.2988 20.1979 94.7285 19.7227C95.1582 19.2409 95.666 18.873 96.252 18.6191C96.8379 18.3652 97.4727 18.2383 98.1562 18.2383C98.9115 18.2383 99.5723 18.3652 100.139 18.6191C100.705 18.873 101.174 19.2311 101.545 19.6934C101.923 20.1491 102.202 20.6927 102.385 21.3242C102.574 21.9557 102.668 22.6523 102.668 23.4141V24.4199H94.5039V22.7305H100.344V22.5449C100.331 22.1217 100.246 21.7246 100.09 21.3535C99.9401 20.9824 99.709 20.6829 99.3965 20.4551C99.084 20.2272 98.6673 20.1133 98.1465 20.1133C97.7559 20.1133 97.4076 20.1979 97.1016 20.3672C96.8021 20.5299 96.5514 20.7676 96.3496 21.0801C96.1478 21.3926 95.9915 21.7702 95.8809 22.2129C95.7767 22.6491 95.7246 23.1406 95.7246 23.6875V24.0781C95.7246 24.5404 95.7865 24.9701 95.9102 25.3672C96.0404 25.7578 96.2292 26.0996 96.4766 26.3926C96.724 26.6855 97.0234 26.9167 97.375 27.0859C97.7266 27.2487 98.127 27.3301 98.5762 27.3301C99.1426 27.3301 99.6471 27.2161 100.09 26.9883C100.533 26.7604 100.917 26.4382 101.242 26.0215L102.482 27.2227C102.255 27.5547 101.958 27.8737 101.594 28.1797C101.229 28.4792 100.783 28.7233 100.256 28.9121C99.735 29.1009 99.1296 29.1953 98.4395 29.1953ZM110.432 26.1387C110.432 25.9043 110.373 25.6927 110.256 25.5039C110.139 25.3086 109.914 25.1328 109.582 24.9766C109.257 24.8203 108.775 24.6771 108.137 24.5469C107.577 24.4232 107.062 24.2767 106.594 24.1074C106.132 23.9316 105.734 23.7201 105.402 23.4727C105.07 23.2253 104.813 22.9323 104.631 22.5938C104.449 22.2552 104.357 21.8646 104.357 21.4219C104.357 20.9922 104.452 20.5853 104.641 20.2012C104.829 19.8171 105.1 19.4785 105.451 19.1855C105.803 18.8926 106.229 18.6615 106.73 18.4922C107.238 18.3229 107.805 18.2383 108.43 18.2383C109.315 18.2383 110.074 18.388 110.705 18.6875C111.343 18.9805 111.831 19.3809 112.17 19.8887C112.508 20.39 112.678 20.9564 112.678 21.5879H110.324C110.324 21.3079 110.253 21.0475 110.109 20.8066C109.973 20.5592 109.764 20.3607 109.484 20.2109C109.204 20.0547 108.853 19.9766 108.43 19.9766C108.026 19.9766 107.691 20.0417 107.424 20.1719C107.163 20.2956 106.968 20.4583 106.838 20.6602C106.714 20.862 106.652 21.0833 106.652 21.3242C106.652 21.5 106.685 21.6595 106.75 21.8027C106.822 21.9395 106.939 22.0664 107.102 22.1836C107.264 22.2943 107.486 22.3984 107.766 22.4961C108.052 22.5938 108.41 22.6882 108.84 22.7793C109.647 22.9486 110.34 23.1667 110.92 23.4336C111.506 23.694 111.955 24.0326 112.268 24.4492C112.58 24.8594 112.736 25.3802 112.736 26.0117C112.736 26.4805 112.635 26.9102 112.434 27.3008C112.238 27.6849 111.952 28.0202 111.574 28.3066C111.197 28.5866 110.744 28.8047 110.217 28.9609C109.696 29.1172 109.11 29.1953 108.459 29.1953C107.502 29.1953 106.691 29.026 106.027 28.6875C105.363 28.3424 104.859 27.903 104.514 27.3691C104.175 26.8288 104.006 26.2689 104.006 25.6895H106.281C106.307 26.1257 106.428 26.474 106.643 26.7344C106.864 26.9883 107.137 27.1738 107.463 27.291C107.795 27.4017 108.137 27.457 108.488 27.457C108.911 27.457 109.266 27.4017 109.553 27.291C109.839 27.1738 110.057 27.0176 110.207 26.8223C110.357 26.6204 110.432 26.3926 110.432 26.1387Z" fill="black"/>
</svg>
