<svg width="40" height="54" viewBox="0 0 40 54" fill="none" xmlns="http://www.w3.org/2000/svg">
<path d="M0.5 9.78571H39.5V43.5714C39.5 48.8181 35.2467 53.0714 30 53.0714H10C4.7533 53.0714 0.5 48.8181 0.5 43.5714V9.78571Z" fill="#E67E22" stroke="black"/>
<mask id="path-2-inside-1_187_106" fill="white">
<path d="M30.0001 9.64286C30.0001 7.08541 28.9841 4.63271 27.1757 2.82433C25.3674 1.01594 22.9147 1.93082e-07 20.3572 0C17.7998 -1.93082e-07 15.3471 1.01594 13.5387 2.82433C11.7303 4.63271 10.7144 7.08541 10.7144 9.64286L20.3572 9.64286H30.0001Z"/>
</mask>
<path d="M30.0001 9.64286C30.0001 7.08541 28.9841 4.63271 27.1757 2.82433C25.3674 1.01594 22.9147 1.93082e-07 20.3572 0C17.7998 -1.93082e-07 15.3471 1.01594 13.5387 2.82433C11.7303 4.63271 10.7144 7.08541 10.7144 9.64286L20.3572 9.64286H30.0001Z" fill="#F8F9FA" stroke="black" stroke-width="2" mask="url(#path-2-inside-1_187_106)"/>
</svg>
