<svg width="177" height="46" viewBox="0 0 177 46" fill="none" xmlns="http://www.w3.org/2000/svg">
<rect x="1" y="1" width="175" height="44" rx="22" fill="#E67E22" stroke="black" stroke-width="2"/>
<path d="M60.9258 26.3379C60.9258 26.0449 60.8802 25.7845 60.7891 25.5566C60.7044 25.3288 60.5514 25.1204 60.3301 24.9316C60.1087 24.7428 59.7962 24.5605 59.3926 24.3848C58.9954 24.2025 58.4876 24.0169 57.8691 23.8281C57.1921 23.6198 56.5671 23.3887 55.9941 23.1348C55.4277 22.8743 54.9329 22.5749 54.5098 22.2363C54.0866 21.8913 53.7578 21.4974 53.5234 21.0547C53.2891 20.6055 53.1719 20.0879 53.1719 19.502C53.1719 18.9225 53.2923 18.3952 53.5332 17.9199C53.7806 17.4447 54.1289 17.0345 54.5781 16.6895C55.0339 16.3379 55.571 16.0677 56.1895 15.8789C56.8079 15.6836 57.4915 15.5859 58.2402 15.5859C59.2949 15.5859 60.2031 15.7812 60.9648 16.1719C61.7331 16.5625 62.3223 17.0866 62.7324 17.7441C63.1491 18.4017 63.3574 19.1276 63.3574 19.9219H60.9258C60.9258 19.4531 60.8249 19.0397 60.623 18.6816C60.4277 18.3171 60.1283 18.0306 59.7246 17.8223C59.3275 17.6139 58.8229 17.5098 58.2109 17.5098C57.6315 17.5098 57.1497 17.5977 56.7656 17.7734C56.3815 17.9492 56.0951 18.1868 55.9062 18.4863C55.7174 18.7858 55.623 19.1243 55.623 19.502C55.623 19.7689 55.6849 20.013 55.8086 20.2344C55.9323 20.4492 56.1211 20.651 56.375 20.8398C56.6289 21.0221 56.9479 21.1947 57.332 21.3574C57.7161 21.5202 58.1686 21.6764 58.6895 21.8262C59.4772 22.0605 60.1641 22.321 60.75 22.6074C61.3359 22.8874 61.8242 23.2064 62.2148 23.5645C62.6055 23.9225 62.8984 24.3294 63.0938 24.7852C63.2891 25.2344 63.3867 25.7454 63.3867 26.3184C63.3867 26.9173 63.2663 27.4577 63.0254 27.9395C62.7845 28.4147 62.4395 28.8216 61.9902 29.1602C61.5475 29.4922 61.0137 29.7493 60.3887 29.9316C59.7702 30.1074 59.0801 30.1953 58.3184 30.1953C57.6348 30.1953 56.9609 30.1042 56.2969 29.9219C55.6393 29.7396 55.0404 29.4629 54.5 29.0918C53.9596 28.7142 53.5299 28.2454 53.2109 27.6855C52.8919 27.1191 52.7324 26.4583 52.7324 25.7031H55.1836C55.1836 26.1654 55.2617 26.5592 55.418 26.8848C55.5807 27.2103 55.8053 27.4772 56.0918 27.6855C56.3783 27.8874 56.7103 28.0371 57.0879 28.1348C57.472 28.2324 57.8822 28.2812 58.3184 28.2812C58.8913 28.2812 59.3698 28.1999 59.7539 28.0371C60.1445 27.8743 60.4375 27.6465 60.6328 27.3535C60.8281 27.0605 60.9258 26.722 60.9258 26.3379ZM71.6777 27.5098V19.4336H74.041V30H71.8145L71.6777 27.5098ZM72.0098 25.3125L72.8008 25.293C72.8008 26.0026 72.7227 26.6569 72.5664 27.2559C72.4102 27.8483 72.1693 28.3659 71.8438 28.8086C71.5182 29.2448 71.1016 29.5866 70.5938 29.834C70.0859 30.0749 69.4772 30.1953 68.7676 30.1953C68.2533 30.1953 67.7812 30.1204 67.3516 29.9707C66.9219 29.821 66.5508 29.5898 66.2383 29.2773C65.9323 28.9648 65.6947 28.5579 65.5254 28.0566C65.3561 27.5553 65.2715 26.9564 65.2715 26.2598V19.4336H67.625V26.2793C67.625 26.6634 67.6706 26.9857 67.7617 27.2461C67.8529 27.5 67.9766 27.7051 68.1328 27.8613C68.2891 28.0176 68.4714 28.1283 68.6797 28.1934C68.888 28.2585 69.1094 28.291 69.3438 28.291C70.0143 28.291 70.5417 28.1608 70.9258 27.9004C71.3164 27.6335 71.5931 27.2754 71.7559 26.8262C71.9251 26.377 72.0098 25.8724 72.0098 25.3125ZM78.8164 21.4648V34.0625H76.4629V19.4336H78.6309L78.8164 21.4648ZM85.7012 24.6191V24.8242C85.7012 25.5924 85.61 26.3053 85.4277 26.9629C85.252 27.6139 84.9883 28.1836 84.6367 28.6719C84.2917 29.1536 83.8652 29.528 83.3574 29.7949C82.8496 30.0618 82.2637 30.1953 81.5996 30.1953C80.9421 30.1953 80.3659 30.0749 79.8711 29.834C79.3828 29.5866 78.9694 29.2383 78.6309 28.7891C78.2923 28.3398 78.0189 27.8125 77.8105 27.207C77.6087 26.5951 77.4655 25.9245 77.3809 25.1953V24.4043C77.4655 23.6296 77.6087 22.9264 77.8105 22.2949C78.0189 21.6634 78.2923 21.1198 78.6309 20.6641C78.9694 20.2083 79.3828 19.8568 79.8711 19.6094C80.3594 19.362 80.929 19.2383 81.5801 19.2383C82.2441 19.2383 82.8333 19.3685 83.3477 19.6289C83.862 19.8828 84.2949 20.2474 84.6465 20.7227C84.998 21.1914 85.2617 21.7578 85.4375 22.4219C85.6133 23.0794 85.7012 23.8118 85.7012 24.6191ZM83.3477 24.8242V24.6191C83.3477 24.1309 83.3021 23.6784 83.2109 23.2617C83.1198 22.8385 82.9766 22.4674 82.7812 22.1484C82.5859 21.8294 82.3353 21.582 82.0293 21.4062C81.7298 21.224 81.3685 21.1328 80.9453 21.1328C80.5286 21.1328 80.1706 21.2044 79.8711 21.3477C79.5716 21.4844 79.321 21.6764 79.1191 21.9238C78.9173 22.1712 78.7611 22.4609 78.6504 22.793C78.5397 23.1185 78.4616 23.4733 78.416 23.8574V25.752C78.4941 26.2207 78.6276 26.6504 78.8164 27.041C79.0052 27.4316 79.2721 27.7441 79.6172 27.9785C79.9688 28.2064 80.418 28.3203 80.9648 28.3203C81.388 28.3203 81.7493 28.2292 82.0488 28.0469C82.3483 27.8646 82.5924 27.6139 82.7812 27.2949C82.9766 26.9694 83.1198 26.5951 83.2109 26.1719C83.3021 25.7487 83.3477 25.2995 83.3477 24.8242ZM90.0664 21.4648V34.0625H87.7129V19.4336H89.8809L90.0664 21.4648ZM96.9512 24.6191V24.8242C96.9512 25.5924 96.86 26.3053 96.6777 26.9629C96.502 27.6139 96.2383 28.1836 95.8867 28.6719C95.5417 29.1536 95.1152 29.528 94.6074 29.7949C94.0996 30.0618 93.5137 30.1953 92.8496 30.1953C92.1921 30.1953 91.6159 30.0749 91.1211 29.834C90.6328 29.5866 90.2194 29.2383 89.8809 28.7891C89.5423 28.3398 89.2689 27.8125 89.0605 27.207C88.8587 26.5951 88.7155 25.9245 88.6309 25.1953V24.4043C88.7155 23.6296 88.8587 22.9264 89.0605 22.2949C89.2689 21.6634 89.5423 21.1198 89.8809 20.6641C90.2194 20.2083 90.6328 19.8568 91.1211 19.6094C91.6094 19.362 92.179 19.2383 92.8301 19.2383C93.4941 19.2383 94.0833 19.3685 94.5977 19.6289C95.112 19.8828 95.5449 20.2474 95.8965 20.7227C96.248 21.1914 96.5117 21.7578 96.6875 22.4219C96.8633 23.0794 96.9512 23.8118 96.9512 24.6191ZM94.5977 24.8242V24.6191C94.5977 24.1309 94.5521 23.6784 94.4609 23.2617C94.3698 22.8385 94.2266 22.4674 94.0312 22.1484C93.8359 21.8294 93.5853 21.582 93.2793 21.4062C92.9798 21.224 92.6185 21.1328 92.1953 21.1328C91.7786 21.1328 91.4206 21.2044 91.1211 21.3477C90.8216 21.4844 90.571 21.6764 90.3691 21.9238C90.1673 22.1712 90.0111 22.4609 89.9004 22.793C89.7897 23.1185 89.7116 23.4733 89.666 23.8574V25.752C89.7441 26.2207 89.8776 26.6504 90.0664 27.041C90.2552 27.4316 90.5221 27.7441 90.8672 27.9785C91.2188 28.2064 91.668 28.3203 92.2148 28.3203C92.638 28.3203 92.9993 28.2292 93.2988 28.0469C93.5983 27.8646 93.8424 27.6139 94.0312 27.2949C94.2266 26.9694 94.3698 26.5951 94.4609 26.1719C94.5521 25.7487 94.5977 25.2995 94.5977 24.8242ZM98.5039 24.834V24.6094C98.5039 23.8477 98.6146 23.1413 98.8359 22.4902C99.0573 21.8327 99.3763 21.263 99.793 20.7812C100.216 20.293 100.73 19.9154 101.336 19.6484C101.948 19.375 102.638 19.2383 103.406 19.2383C104.181 19.2383 104.871 19.375 105.477 19.6484C106.089 19.9154 106.606 20.293 107.029 20.7812C107.452 21.263 107.775 21.8327 107.996 22.4902C108.217 23.1413 108.328 23.8477 108.328 24.6094V24.834C108.328 25.5957 108.217 26.3021 107.996 26.9531C107.775 27.6042 107.452 28.1738 107.029 28.6621C106.606 29.1439 106.092 29.5215 105.486 29.7949C104.881 30.0618 104.194 30.1953 103.426 30.1953C102.651 30.1953 101.958 30.0618 101.346 29.7949C100.74 29.5215 100.226 29.1439 99.8027 28.6621C99.3796 28.1738 99.0573 27.6042 98.8359 26.9531C98.6146 26.3021 98.5039 25.5957 98.5039 24.834ZM100.857 24.6094V24.834C100.857 25.3092 100.906 25.7585 101.004 26.1816C101.102 26.6048 101.255 26.9759 101.463 27.2949C101.671 27.6139 101.938 27.8646 102.264 28.0469C102.589 28.2292 102.977 28.3203 103.426 28.3203C103.862 28.3203 104.24 28.2292 104.559 28.0469C104.884 27.8646 105.151 27.6139 105.359 27.2949C105.568 26.9759 105.721 26.6048 105.818 26.1816C105.923 25.7585 105.975 25.3092 105.975 24.834V24.6094C105.975 24.1406 105.923 23.6979 105.818 23.2812C105.721 22.8581 105.564 22.4837 105.35 22.1582C105.141 21.8327 104.874 21.5788 104.549 21.3965C104.23 21.2077 103.849 21.1133 103.406 21.1133C102.964 21.1133 102.579 21.2077 102.254 21.3965C101.935 21.5788 101.671 21.8327 101.463 22.1582C101.255 22.4837 101.102 22.8581 101.004 23.2812C100.906 23.6979 100.857 24.1406 100.857 24.6094ZM112.664 21.4453V30H110.311V19.4336H112.557L112.664 21.4453ZM115.896 19.3652L115.877 21.5527C115.734 21.5267 115.577 21.5072 115.408 21.4941C115.245 21.4811 115.083 21.4746 114.92 21.4746C114.516 21.4746 114.161 21.5332 113.855 21.6504C113.549 21.7611 113.292 21.9238 113.084 22.1387C112.882 22.347 112.726 22.6009 112.615 22.9004C112.505 23.1999 112.439 23.5352 112.42 23.9062L111.883 23.9453C111.883 23.2812 111.948 22.666 112.078 22.0996C112.208 21.5332 112.404 21.0352 112.664 20.6055C112.931 20.1758 113.263 19.8405 113.66 19.5996C114.064 19.3587 114.529 19.2383 115.057 19.2383C115.2 19.2383 115.353 19.2513 115.516 19.2773C115.685 19.3034 115.812 19.3327 115.896 19.3652ZM122.703 19.4336V21.1523H116.746V19.4336H122.703ZM118.465 16.8457H120.818V27.0801C120.818 27.4056 120.864 27.6562 120.955 27.832C121.053 28.0013 121.186 28.1152 121.355 28.1738C121.525 28.2324 121.723 28.2617 121.951 28.2617C122.114 28.2617 122.27 28.252 122.42 28.2324C122.57 28.2129 122.69 28.1934 122.781 28.1738L122.791 29.9707C122.596 30.0293 122.368 30.0814 122.107 30.127C121.854 30.1725 121.561 30.1953 121.229 30.1953C120.688 30.1953 120.21 30.1009 119.793 29.9121C119.376 29.7168 119.051 29.401 118.816 28.9648C118.582 28.5286 118.465 27.9492 118.465 27.2266V16.8457Z" fill="black"/>
</svg>
