<svg width="177" height="46" viewBox="0 0 177 46" fill="none" xmlns="http://www.w3.org/2000/svg">
<rect x="1" y="1" width="175" height="44" rx="22" fill="#D9CAB3" stroke="black" stroke-width="2"/>
<path d="M65.2949 14.7812V29H62.8633V14.7812H65.2949ZM69.7578 14.7812V16.7344H58.4395V14.7812H69.7578ZM73.7324 21.9883V23.8633H68.5664V21.9883H73.7324ZM81.7207 26.1387C81.7207 25.9043 81.6621 25.6927 81.5449 25.5039C81.4277 25.3086 81.2031 25.1328 80.8711 24.9766C80.5456 24.8203 80.0638 24.6771 79.4258 24.5469C78.8659 24.4232 78.3516 24.2767 77.8828 24.1074C77.4206 23.9316 77.0234 23.7201 76.6914 23.4727C76.3594 23.2253 76.1022 22.9323 75.9199 22.5938C75.7376 22.2552 75.6465 21.8646 75.6465 21.4219C75.6465 20.9922 75.7409 20.5853 75.9297 20.2012C76.1185 19.8171 76.3887 19.4785 76.7402 19.1855C77.0918 18.8926 77.5182 18.6615 78.0195 18.4922C78.5273 18.3229 79.0938 18.2383 79.7188 18.2383C80.6042 18.2383 81.3626 18.388 81.9941 18.6875C82.6322 18.9805 83.1204 19.3809 83.459 19.8887C83.7975 20.39 83.9668 20.9564 83.9668 21.5879H81.6133C81.6133 21.3079 81.5417 21.0475 81.3984 20.8066C81.2617 20.5592 81.0534 20.3607 80.7734 20.2109C80.4935 20.0547 80.1419 19.9766 79.7188 19.9766C79.3151 19.9766 78.9798 20.0417 78.7129 20.1719C78.4525 20.2956 78.2572 20.4583 78.127 20.6602C78.0033 20.862 77.9414 21.0833 77.9414 21.3242C77.9414 21.5 77.974 21.6595 78.0391 21.8027C78.1107 21.9395 78.2279 22.0664 78.3906 22.1836C78.5534 22.2943 78.7747 22.3984 79.0547 22.4961C79.3411 22.5938 79.6992 22.6882 80.1289 22.7793C80.9362 22.9486 81.6296 23.1667 82.209 23.4336C82.7949 23.694 83.2441 24.0326 83.5566 24.4492C83.8691 24.8594 84.0254 25.3802 84.0254 26.0117C84.0254 26.4805 83.9245 26.9102 83.7227 27.3008C83.5273 27.6849 83.2409 28.0202 82.8633 28.3066C82.4857 28.5866 82.0332 28.8047 81.5059 28.9609C80.985 29.1172 80.3991 29.1953 79.748 29.1953C78.791 29.1953 77.9805 29.026 77.3164 28.6875C76.6523 28.3424 76.1478 27.903 75.8027 27.3691C75.4642 26.8288 75.2949 26.2689 75.2949 25.6895H77.5703C77.5964 26.1257 77.7168 26.474 77.9316 26.7344C78.153 26.9883 78.4264 27.1738 78.752 27.291C79.084 27.4017 79.4258 27.457 79.7773 27.457C80.2005 27.457 80.5553 27.4017 80.8418 27.291C81.1283 27.1738 81.3464 27.0176 81.4961 26.8223C81.6458 26.6204 81.7207 26.3926 81.7207 26.1387ZM88.4102 14V29H86.0664V14H88.4102ZM88 23.3262L87.2383 23.3164C87.2448 22.5872 87.3457 21.9134 87.541 21.2949C87.7428 20.6764 88.0228 20.1393 88.3809 19.6836C88.7454 19.2214 89.1816 18.8665 89.6895 18.6191C90.1973 18.3652 90.7604 18.2383 91.3789 18.2383C91.8997 18.2383 92.3685 18.3099 92.7852 18.4531C93.2083 18.5964 93.5729 18.8275 93.8789 19.1465C94.1849 19.459 94.416 19.8691 94.5723 20.377C94.735 20.8783 94.8164 21.4902 94.8164 22.2129V29H92.4531V22.1934C92.4531 21.6855 92.3783 21.2819 92.2285 20.9824C92.0853 20.6829 91.8737 20.4681 91.5938 20.3379C91.3138 20.2012 90.972 20.1328 90.5684 20.1328C90.1452 20.1328 89.7708 20.2174 89.4453 20.3867C89.1263 20.556 88.8594 20.7871 88.6445 21.0801C88.4297 21.373 88.2669 21.7116 88.1562 22.0957C88.0521 22.4798 88 22.89 88 23.3262ZM99.7188 18.4336V29H97.3555V18.4336H99.7188ZM97.1992 15.6602C97.1992 15.3021 97.3164 15.0059 97.5508 14.7715C97.7917 14.5306 98.1237 14.4102 98.5469 14.4102C98.9635 14.4102 99.2923 14.5306 99.5332 14.7715C99.7741 15.0059 99.8945 15.3021 99.8945 15.6602C99.8945 16.0117 99.7741 16.3047 99.5332 16.5391C99.2923 16.7734 98.9635 16.8906 98.5469 16.8906C98.1237 16.8906 97.7917 16.7734 97.5508 16.5391C97.3164 16.3047 97.1992 16.0117 97.1992 15.6602ZM107.141 18.4336V20.1523H101.184V18.4336H107.141ZM102.902 15.8457H105.256V26.0801C105.256 26.4056 105.301 26.6562 105.393 26.832C105.49 27.0013 105.624 27.1152 105.793 27.1738C105.962 27.2324 106.161 27.2617 106.389 27.2617C106.551 27.2617 106.708 27.252 106.857 27.2324C107.007 27.2129 107.128 27.1934 107.219 27.1738L107.229 28.9707C107.033 29.0293 106.805 29.0814 106.545 29.127C106.291 29.1725 105.998 29.1953 105.666 29.1953C105.126 29.1953 104.647 29.1009 104.23 28.9121C103.814 28.7168 103.488 28.401 103.254 27.9648C103.02 27.5286 102.902 26.9492 102.902 26.2266V15.8457ZM114.885 26.1387C114.885 25.9043 114.826 25.6927 114.709 25.5039C114.592 25.3086 114.367 25.1328 114.035 24.9766C113.71 24.8203 113.228 24.6771 112.59 24.5469C112.03 24.4232 111.516 24.2767 111.047 24.1074C110.585 23.9316 110.188 23.7201 109.855 23.4727C109.523 23.2253 109.266 22.9323 109.084 22.5938C108.902 22.2552 108.811 21.8646 108.811 21.4219C108.811 20.9922 108.905 20.5853 109.094 20.2012C109.283 19.8171 109.553 19.4785 109.904 19.1855C110.256 18.8926 110.682 18.6615 111.184 18.4922C111.691 18.3229 112.258 18.2383 112.883 18.2383C113.768 18.2383 114.527 18.388 115.158 18.6875C115.796 18.9805 116.285 19.3809 116.623 19.8887C116.962 20.39 117.131 20.9564 117.131 21.5879H114.777C114.777 21.3079 114.706 21.0475 114.562 20.8066C114.426 20.5592 114.217 20.3607 113.938 20.2109C113.658 20.0547 113.306 19.9766 112.883 19.9766C112.479 19.9766 112.144 20.0417 111.877 20.1719C111.617 20.2956 111.421 20.4583 111.291 20.6602C111.167 20.862 111.105 21.0833 111.105 21.3242C111.105 21.5 111.138 21.6595 111.203 21.8027C111.275 21.9395 111.392 22.0664 111.555 22.1836C111.717 22.2943 111.939 22.3984 112.219 22.4961C112.505 22.5938 112.863 22.6882 113.293 22.7793C114.1 22.9486 114.794 23.1667 115.373 23.4336C115.959 23.694 116.408 24.0326 116.721 24.4492C117.033 24.8594 117.189 25.3802 117.189 26.0117C117.189 26.4805 117.089 26.9102 116.887 27.3008C116.691 27.6849 116.405 28.0202 116.027 28.3066C115.65 28.5866 115.197 28.8047 114.67 28.9609C114.149 29.1172 113.563 29.1953 112.912 29.1953C111.955 29.1953 111.145 29.026 110.48 28.6875C109.816 28.3424 109.312 27.903 108.967 27.3691C108.628 26.8288 108.459 26.2689 108.459 25.6895H110.734C110.76 26.1257 110.881 26.474 111.096 26.7344C111.317 26.9883 111.59 27.1738 111.916 27.291C112.248 27.4017 112.59 27.457 112.941 27.457C113.365 27.457 113.719 27.4017 114.006 27.291C114.292 27.1738 114.51 27.0176 114.66 26.8223C114.81 26.6204 114.885 26.3926 114.885 26.1387Z" fill="black"/>
</svg>
